<svg width="20" height="20" viewBox="0 0 20 20" fill="none" xmlns="http://www.w3.org/2000/svg">
<path d="M4.37533 3.33325H15.6253C16.3171 3.33321 16.9827 3.59788 17.4855 4.07298C17.9884 4.54808 18.2903 5.19758 18.3295 5.88825L18.3337 6.04159V13.9583C18.3337 14.65 18.069 15.3156 17.5939 15.8184C17.1188 16.3213 16.4693 16.6233 15.7787 16.6624L15.6253 16.6666H4.37533C3.68354 16.6666 3.01797 16.402 2.51513 15.9269C2.0123 15.4518 1.71032 14.8023 1.67116 14.1116L1.66699 13.9583V6.04159C1.66695 5.3498 1.93162 4.68423 2.40672 4.18139C2.88182 3.67856 3.53132 3.37658 4.22199 3.33742L4.37533 3.33325H15.6253H4.37533ZM17.0837 7.81075L10.292 11.3858C10.2153 11.4263 10.131 11.4504 10.0445 11.4565C9.958 11.4627 9.87115 11.4508 9.78949 11.4216L9.70949 11.3866L2.91699 7.81158V13.9583C2.91701 14.3242 3.05463 14.6768 3.30256 14.9461C3.55048 15.2153 3.89058 15.3815 4.25533 15.4116L4.37533 15.4166H15.6253C15.9915 15.4166 16.3442 15.2788 16.6134 15.0307C16.8827 14.7826 17.0487 14.4423 17.0787 14.0774L17.0837 13.9583V7.81075ZM15.6253 4.58325H4.37533C4.00933 4.58327 3.65673 4.72089 3.3875 4.96882C3.11827 5.21674 2.95211 5.55683 2.92199 5.92158L2.91699 6.04159V6.39908L10.0003 10.1266L17.0837 6.39825V6.04159C17.0836 5.67546 16.9459 5.32274 16.6978 5.0535C16.4497 4.78425 16.1094 4.61817 15.7445 4.58825L15.6253 4.58325Z" fill="#3F4E65"/>
</svg>
